<?xml version="1.0" encoding="utf-8"?>
<!-- Generator: Adobe Illustrator 23.0.6, SVG Export Plug-In . SVG Version: 6.00 Build 0)  -->
<svg version="1.1" id="Layer_1" xmlns="http://www.w3.org/2000/svg" xmlns:xlink="http://www.w3.org/1999/xlink" x="0px" y="0px"
	 viewBox="0 0 460.8 342.72" style="enable-background:new 0 0 460.8 342.72;" xml:space="preserve">
<style type="text/css">
	.st0{clip-path:url(#SVGID_2_);}
	.st1{fill:#3274A1;}
	.st2{fill:none;stroke:#3D3D3D;stroke-linejoin:round;stroke-miterlimit:10;}
	.st3{fill:#E1812C;}
	.st4{fill:#3B913B;}
	.st5{clip-path:url(#SVGID_2_);fill:none;stroke:#000000;stroke-width:0.8;stroke-linejoin:round;stroke-miterlimit:10;}
	.st6{clip-path:url(#SVGID_4_);}
	.st7{clip-path:url(#SVGID_6_);}
	.st8{fill:none;stroke:#3D3D3D;stroke-linecap:square;stroke-linejoin:round;stroke-miterlimit:10;}
	.st9{fill:none;stroke:#3D3D3D;stroke-width:3;stroke-linecap:square;stroke-linejoin:round;stroke-miterlimit:10;}
	.st10{clip-path:url(#SVGID_2_);fill:none;stroke:#000000;stroke-width:0.8;stroke-linecap:square;stroke-miterlimit:10;}
	.st11{fill:#FFFFFF;}
	.st12{fill:none;}
	.st13{font-family:'MyriadPro-Regular';}
	.st14{font-size:8.162px;}
	.st15{font-size:10px;}
	.st16{fill:none;stroke:#000000;stroke-miterlimit:10;}
	.st17{clip-path:url(#SVGID_8_);}
	.st18{clip-path:url(#SVGID_10_);}
	.st19{clip-path:url(#SVGID_10_);fill:none;stroke:#000000;stroke-width:0.8;stroke-linejoin:round;stroke-miterlimit:10;}
	.st20{clip-path:url(#SVGID_12_);}
	.st21{clip-path:url(#SVGID_16_);}
	.st22{clip-path:url(#SVGID_10_);fill:none;stroke:#000000;stroke-width:0.8;stroke-linecap:square;stroke-miterlimit:10;}
	.st23{font-size:14px;}
</style>
<g>
	<g>
		<defs>
			<rect id="SVGID_1_" y="11.57" width="233.86" height="173.93"/>
		</defs>
		<clipPath id="SVGID_2_">
			<use xlink:href="#SVGID_1_"  style="overflow:visible;"/>
		</clipPath>
		<g class="st0">
			<polygon class="st1" points="59.44,157.95 59.44,157.95 59.43,156.74 59.43,155.53 59.42,154.33 59.41,153.12 59.4,151.91 
				59.39,150.71 59.37,149.5 59.34,148.3 59.3,147.09 59.24,145.88 59.18,144.68 59.1,143.47 59.03,142.26 58.96,141.06 
				58.88,139.85 58.78,138.65 58.66,137.44 58.51,136.23 58.36,135.03 58.19,133.82 58.02,132.62 57.81,131.41 57.56,130.2 
				57.26,129 56.92,127.79 56.52,126.58 56.09,125.38 55.6,124.17 55.06,122.97 54.51,121.76 53.99,120.55 53.49,119.35 
				52.99,118.14 52.41,116.94 51.73,115.73 50.92,114.52 50,113.32 48.97,112.11 47.87,110.9 46.76,109.7 45.71,108.49 
				44.75,107.29 43.85,106.08 42.94,104.87 41.98,103.67 41.03,102.46 40.12,101.26 39.27,100.05 38.48,98.84 37.79,97.64 
				37.27,96.43 36.93,95.22 36.76,94.02 36.74,92.81 36.86,91.61 37.07,90.4 37.37,89.19 37.74,87.99 38.18,86.78 38.7,85.57 
				39.26,84.37 39.86,83.16 40.49,81.96 41.23,80.75 42.18,79.54 43.37,78.34 44.71,77.13 46.03,75.93 47.21,74.72 48.22,73.51 
				49.09,72.31 49.89,71.1 50.68,69.89 51.56,68.69 52.52,67.48 53.53,66.28 54.48,65.07 55.3,63.86 55.98,62.66 56.55,61.45 
				57.06,60.25 57.52,59.04 57.93,57.83 58.27,56.63 58.55,55.42 58.75,54.21 58.89,53.01 58.99,51.8 59.06,50.6 59.11,49.39 
				59.17,48.18 59.22,46.98 59.27,45.77 59.32,44.56 59.36,43.36 59.39,42.15 59.41,40.95 59.43,39.74 59.44,38.53 59.44,38.53 
				59.45,39.74 59.46,40.95 59.49,42.15 59.52,43.36 59.56,44.56 59.61,45.77 59.66,46.98 59.71,48.18 59.76,49.39 59.82,50.6 
				59.89,51.8 59.98,53.01 60.13,54.21 60.33,55.42 60.61,56.63 60.95,57.83 61.36,59.04 61.82,60.25 62.32,61.45 62.9,62.66 
				63.58,63.86 64.4,65.07 65.35,66.28 66.35,67.48 67.32,68.69 68.19,69.89 68.99,71.1 69.79,72.31 70.66,73.51 71.66,74.72 
				72.85,75.93 74.17,77.13 75.51,78.34 76.7,79.54 77.65,80.75 78.39,81.96 79.02,83.16 79.61,84.37 80.18,85.57 80.7,86.78 
				81.14,87.99 81.51,89.19 81.81,90.4 82.02,91.61 82.13,92.81 82.12,94.02 81.95,95.22 81.61,96.43 81.09,97.64 80.4,98.84 
				79.61,100.05 78.76,101.26 77.85,102.46 76.89,103.67 75.94,104.87 75.03,106.08 74.12,107.29 73.16,108.49 72.11,109.7 
				71.01,110.9 69.91,112.11 68.88,113.32 67.96,114.52 67.15,115.73 66.47,116.94 65.89,118.14 65.39,119.35 64.89,120.55 
				64.37,121.76 63.82,122.97 63.28,124.17 62.79,125.38 62.35,126.58 61.96,127.79 61.62,129 61.32,130.2 61.07,131.41 
				60.86,132.62 60.69,133.82 60.52,135.03 60.37,136.23 60.22,137.44 60.1,138.65 60,139.85 59.92,141.06 59.85,142.26 
				59.77,143.47 59.7,144.68 59.64,145.88 59.58,147.09 59.54,148.3 59.51,149.5 59.49,150.71 59.48,151.91 59.47,153.12 
				59.46,154.33 59.45,155.53 59.44,156.74 			"/>
			<polygon class="st2" points="59.44,157.95 59.44,157.95 59.43,156.74 59.43,155.53 59.42,154.33 59.41,153.12 59.4,151.91 
				59.39,150.71 59.37,149.5 59.34,148.3 59.3,147.09 59.24,145.88 59.18,144.68 59.1,143.47 59.03,142.26 58.96,141.06 
				58.88,139.85 58.78,138.65 58.66,137.44 58.51,136.23 58.36,135.03 58.19,133.82 58.02,132.62 57.81,131.41 57.56,130.2 
				57.26,129 56.92,127.79 56.52,126.58 56.09,125.38 55.6,124.17 55.06,122.97 54.51,121.76 53.99,120.55 53.49,119.35 
				52.99,118.14 52.41,116.94 51.73,115.73 50.92,114.52 50,113.32 48.97,112.11 47.87,110.9 46.76,109.7 45.71,108.49 
				44.75,107.29 43.85,106.08 42.94,104.87 41.98,103.67 41.03,102.46 40.12,101.26 39.27,100.05 38.48,98.84 37.79,97.64 
				37.27,96.43 36.93,95.22 36.76,94.02 36.74,92.81 36.86,91.61 37.07,90.4 37.37,89.19 37.74,87.99 38.18,86.78 38.7,85.57 
				39.26,84.37 39.86,83.16 40.49,81.96 41.23,80.75 42.18,79.54 43.37,78.34 44.71,77.13 46.03,75.93 47.21,74.72 48.22,73.51 
				49.09,72.31 49.89,71.1 50.68,69.89 51.56,68.69 52.52,67.48 53.53,66.28 54.48,65.07 55.3,63.86 55.98,62.66 56.55,61.45 
				57.06,60.25 57.52,59.04 57.93,57.83 58.27,56.63 58.55,55.42 58.75,54.21 58.89,53.01 58.99,51.8 59.06,50.6 59.11,49.39 
				59.17,48.18 59.22,46.98 59.27,45.77 59.32,44.56 59.36,43.36 59.39,42.15 59.41,40.95 59.43,39.74 59.44,38.53 59.44,38.53 
				59.45,39.74 59.46,40.95 59.49,42.15 59.52,43.36 59.56,44.56 59.61,45.77 59.66,46.98 59.71,48.18 59.76,49.39 59.82,50.6 
				59.89,51.8 59.98,53.01 60.13,54.21 60.33,55.42 60.61,56.63 60.95,57.83 61.36,59.04 61.82,60.25 62.32,61.45 62.9,62.66 
				63.58,63.86 64.4,65.07 65.35,66.28 66.35,67.48 67.32,68.69 68.19,69.89 68.99,71.1 69.79,72.31 70.66,73.51 71.66,74.72 
				72.85,75.93 74.17,77.13 75.51,78.34 76.7,79.54 77.65,80.75 78.39,81.96 79.02,83.16 79.61,84.37 80.18,85.57 80.7,86.78 
				81.14,87.99 81.51,89.19 81.81,90.4 82.02,91.61 82.13,92.81 82.12,94.02 81.95,95.22 81.61,96.43 81.09,97.64 80.4,98.84 
				79.61,100.05 78.76,101.26 77.85,102.46 76.89,103.67 75.94,104.87 75.03,106.08 74.12,107.29 73.16,108.49 72.11,109.7 
				71.01,110.9 69.91,112.11 68.88,113.32 67.96,114.52 67.15,115.73 66.47,116.94 65.89,118.14 65.39,119.35 64.89,120.55 
				64.37,121.76 63.82,122.97 63.28,124.17 62.79,125.38 62.35,126.58 61.96,127.79 61.62,129 61.32,130.2 61.07,131.41 
				60.86,132.62 60.69,133.82 60.52,135.03 60.37,136.23 60.22,137.44 60.1,138.65 60,139.85 59.92,141.06 59.85,142.26 
				59.77,143.47 59.7,144.68 59.64,145.88 59.58,147.09 59.54,148.3 59.51,149.5 59.49,150.71 59.48,151.91 59.47,153.12 
				59.46,154.33 59.45,155.53 59.44,156.74 			"/>
		</g>
		<g class="st0">
			<polygon class="st3" points="119.85,159.65 119.85,159.65 119.85,158.43 119.84,157.21 119.84,155.99 119.84,154.76 
				119.84,153.54 119.83,152.32 119.82,151.1 119.8,149.88 119.77,148.65 119.73,147.43 119.7,146.21 119.66,144.99 119.62,143.76 
				119.56,142.54 119.47,141.32 119.34,140.1 119.2,138.88 119.07,137.65 118.94,136.43 118.82,135.21 118.68,133.99 118.51,132.77 
				118.3,131.54 118.07,130.32 117.8,129.1 117.46,127.88 117.02,126.65 116.5,125.43 115.94,124.21 115.39,122.99 114.88,121.77 
				114.39,120.54 113.91,119.32 113.4,118.1 112.83,116.88 112.11,115.65 111.19,114.43 110.12,113.21 109.02,111.99 107.97,110.77 
				106.95,109.54 105.89,108.32 104.79,107.1 103.7,105.88 102.69,104.65 101.74,103.43 100.83,102.21 99.96,100.99 99.17,99.77 
				98.51,98.54 97.98,97.32 97.55,96.1 97.18,94.88 96.87,93.65 96.67,92.43 96.68,91.21 96.95,89.99 97.45,88.77 98.09,87.54 
				98.76,86.32 99.39,85.1 99.98,83.88 100.6,82.66 101.35,81.43 102.28,80.21 103.4,78.99 104.64,77.77 105.93,76.54 107.15,75.32 
				108.23,74.1 109.13,72.88 109.95,71.66 110.8,70.43 111.75,69.21 112.81,67.99 113.88,66.77 114.87,65.54 115.72,64.32 
				116.42,63.1 117.02,61.88 117.56,60.66 118.05,59.43 118.49,58.21 118.84,56.99 119.1,55.77 119.29,54.54 119.42,53.32 
				119.51,52.1 119.58,50.88 119.64,49.66 119.7,48.43 119.75,47.21 119.79,45.99 119.82,44.77 119.83,43.54 119.84,42.32 
				119.84,41.1 119.85,39.88 119.85,38.66 119.85,38.66 119.86,39.88 119.86,41.1 119.87,42.32 119.88,43.54 119.89,44.77 
				119.91,45.99 119.95,47.21 120.01,48.43 120.06,49.66 120.12,50.88 120.19,52.1 120.29,53.32 120.42,54.54 120.6,55.77 
				120.87,56.99 121.22,58.21 121.65,59.43 122.14,60.66 122.68,61.88 123.28,63.1 123.99,64.32 124.84,65.54 125.83,66.77 
				126.9,67.99 127.95,69.21 128.91,70.43 129.76,71.66 130.57,72.88 131.48,74.1 132.55,75.32 133.77,76.54 135.06,77.77 
				136.31,78.99 137.42,80.21 138.36,81.43 139.1,82.66 139.72,83.88 140.31,85.1 140.94,86.32 141.61,87.54 142.25,88.77 
				142.75,89.99 143.02,91.21 143.04,92.43 142.84,93.65 142.52,94.88 142.15,96.1 141.73,97.32 141.2,98.54 140.53,99.77 
				139.74,100.99 138.87,102.21 137.96,103.43 137.02,104.65 136,105.88 134.92,107.1 133.81,108.32 132.76,109.54 131.73,110.77 
				130.68,111.99 129.58,113.21 128.52,114.43 127.6,115.65 126.88,116.88 126.3,118.1 125.8,119.32 125.32,120.54 124.83,121.77 
				124.32,122.99 123.77,124.21 123.21,125.43 122.68,126.65 122.24,127.88 121.9,129.1 121.63,130.32 121.4,131.54 121.2,132.77 
				121.03,133.99 120.89,135.21 120.76,136.43 120.64,137.65 120.5,138.88 120.36,140.1 120.24,141.32 120.15,142.54 120.09,143.76 
				120.05,144.99 120.01,146.21 119.97,147.43 119.93,148.65 119.9,149.88 119.88,151.1 119.87,152.32 119.87,153.54 119.87,154.76 
				119.87,155.99 119.86,157.21 119.86,158.43 			"/>
			<polygon class="st2" points="119.85,159.65 119.85,159.65 119.85,158.43 119.84,157.21 119.84,155.99 119.84,154.76 
				119.84,153.54 119.83,152.32 119.82,151.1 119.8,149.88 119.77,148.65 119.73,147.43 119.7,146.21 119.66,144.99 119.62,143.76 
				119.56,142.54 119.47,141.32 119.34,140.1 119.2,138.88 119.07,137.65 118.94,136.43 118.82,135.21 118.68,133.99 118.51,132.77 
				118.3,131.54 118.07,130.32 117.8,129.1 117.46,127.88 117.02,126.65 116.5,125.43 115.94,124.21 115.39,122.99 114.88,121.77 
				114.39,120.54 113.91,119.32 113.4,118.1 112.83,116.88 112.11,115.65 111.19,114.43 110.12,113.21 109.02,111.99 107.97,110.77 
				106.95,109.54 105.89,108.32 104.79,107.1 103.7,105.88 102.69,104.65 101.74,103.43 100.83,102.21 99.96,100.99 99.17,99.77 
				98.51,98.54 97.98,97.32 97.55,96.1 97.18,94.88 96.87,93.65 96.67,92.43 96.68,91.21 96.95,89.99 97.45,88.77 98.09,87.54 
				98.76,86.32 99.39,85.1 99.98,83.88 100.6,82.66 101.35,81.43 102.28,80.21 103.4,78.99 104.64,77.77 105.93,76.54 107.15,75.32 
				108.23,74.1 109.13,72.88 109.95,71.66 110.8,70.43 111.75,69.21 112.81,67.99 113.88,66.77 114.87,65.54 115.72,64.32 
				116.42,63.1 117.02,61.88 117.56,60.66 118.05,59.43 118.49,58.21 118.84,56.99 119.1,55.77 119.29,54.54 119.42,53.32 
				119.51,52.1 119.58,50.88 119.64,49.66 119.7,48.43 119.75,47.21 119.79,45.99 119.82,44.77 119.83,43.54 119.84,42.32 
				119.84,41.1 119.85,39.88 119.85,38.66 119.85,38.66 119.86,39.88 119.86,41.1 119.87,42.32 119.88,43.54 119.89,44.77 
				119.91,45.99 119.95,47.21 120.01,48.43 120.06,49.66 120.12,50.88 120.19,52.1 120.29,53.32 120.42,54.54 120.6,55.77 
				120.87,56.99 121.22,58.21 121.65,59.43 122.14,60.66 122.68,61.88 123.28,63.1 123.99,64.32 124.84,65.54 125.83,66.77 
				126.9,67.99 127.95,69.21 128.91,70.43 129.76,71.66 130.57,72.88 131.48,74.1 132.55,75.32 133.77,76.54 135.06,77.77 
				136.31,78.99 137.42,80.21 138.36,81.43 139.1,82.66 139.72,83.88 140.31,85.1 140.94,86.32 141.61,87.54 142.25,88.77 
				142.75,89.99 143.02,91.21 143.04,92.43 142.84,93.65 142.52,94.88 142.15,96.1 141.73,97.32 141.2,98.54 140.53,99.77 
				139.74,100.99 138.87,102.21 137.96,103.43 137.02,104.65 136,105.88 134.92,107.1 133.81,108.32 132.76,109.54 131.73,110.77 
				130.68,111.99 129.58,113.21 128.52,114.43 127.6,115.65 126.88,116.88 126.3,118.1 125.8,119.32 125.32,120.54 124.83,121.77 
				124.32,122.99 123.77,124.21 123.21,125.43 122.68,126.65 122.24,127.88 121.9,129.1 121.63,130.32 121.4,131.54 121.2,132.77 
				121.03,133.99 120.89,135.21 120.76,136.43 120.64,137.65 120.5,138.88 120.36,140.1 120.24,141.32 120.15,142.54 120.09,143.76 
				120.05,144.99 120.01,146.21 119.97,147.43 119.93,148.65 119.9,149.88 119.88,151.1 119.87,152.32 119.87,153.54 119.87,154.76 
				119.87,155.99 119.86,157.21 119.86,158.43 			"/>
		</g>
		<g class="st0">
			<polygon class="st4" points="180.27,160.29 180.26,160.29 180.26,159.13 180.26,157.97 180.25,156.82 180.25,155.66 
				180.24,154.51 180.24,153.35 180.22,152.19 180.2,151.04 180.18,149.88 180.14,148.73 180.1,147.57 180.06,146.41 180.01,145.26 
				179.97,144.1 179.92,142.95 179.87,141.79 179.82,140.63 179.76,139.48 179.65,138.32 179.5,137.17 179.3,136.01 179.06,134.85 
				178.79,133.7 178.49,132.54 178.16,131.39 177.82,130.23 177.48,129.07 177.1,127.92 176.68,126.76 176.22,125.61 175.74,124.45 
				175.22,123.29 174.63,122.14 173.98,120.98 173.33,119.83 172.75,118.67 172.21,117.51 171.63,116.36 170.92,115.2 
				170.06,114.05 169.11,112.89 168.11,111.73 167.11,110.58 166.08,109.42 165.03,108.27 163.94,107.11 162.83,105.95 
				161.69,104.8 160.56,103.64 159.49,102.49 158.54,101.33 157.7,100.17 156.99,99.02 156.44,97.86 156.13,96.7 156.1,95.55 
				156.34,94.39 156.73,93.24 157.13,92.08 157.47,90.92 157.79,89.77 158.17,88.61 158.67,87.46 159.29,86.3 160,85.14 
				160.81,83.99 161.73,82.83 162.78,81.68 163.94,80.52 165.19,79.36 166.45,78.21 167.64,77.05 168.7,75.9 169.69,74.74 
				170.74,73.58 171.92,72.43 173.18,71.27 174.37,70.12 175.37,68.96 176.15,67.8 176.75,66.65 177.26,65.49 177.76,64.34 
				178.27,63.18 178.73,62.02 179.13,60.87 179.43,59.71 179.64,58.56 179.78,57.4 179.89,56.24 179.97,55.09 180.04,53.93 
				180.09,52.78 180.14,51.62 180.18,50.46 180.21,49.31 180.24,48.15 180.25,47 180.26,45.84 180.27,45.84 180.28,47 180.29,48.15 
				180.32,49.31 180.35,50.46 180.39,51.62 180.44,52.78 180.5,53.93 180.56,55.09 180.65,56.24 180.75,57.4 180.9,58.56 
				181.11,59.71 181.4,60.87 181.8,62.02 182.27,63.18 182.77,64.34 183.27,65.49 183.78,66.65 184.38,67.8 185.16,68.96 
				186.16,70.12 187.35,71.27 188.61,72.43 189.79,73.58 190.84,74.74 191.83,75.9 192.9,77.05 194.08,78.21 195.34,79.36 
				196.59,80.52 197.75,81.68 198.8,82.83 199.73,83.99 200.54,85.14 201.25,86.3 201.86,87.46 202.36,88.61 202.74,89.77 
				203.06,90.92 203.4,92.08 203.8,93.24 204.19,94.39 204.43,95.55 204.4,96.7 204.09,97.86 203.54,99.02 202.83,100.17 
				202,101.33 201.04,102.49 199.98,103.64 198.85,104.8 197.71,105.95 196.59,107.11 195.5,108.27 194.45,109.42 193.43,110.58 
				192.42,111.73 191.42,112.89 190.47,114.05 189.61,115.2 188.9,116.36 188.32,117.51 187.79,118.67 187.2,119.83 186.55,120.98 
				185.9,122.14 185.31,123.29 184.79,124.45 184.31,125.61 183.85,126.76 183.43,127.92 183.06,129.07 182.71,130.23 
				182.37,131.39 182.05,132.54 181.74,133.7 181.47,134.85 181.23,136.01 181.03,137.17 180.88,138.32 180.77,139.48 
				180.71,140.63 180.66,141.79 180.61,142.95 180.57,144.1 180.52,145.26 180.47,146.41 180.43,147.57 180.39,148.73 
				180.36,149.88 180.33,151.04 180.31,152.19 180.3,153.35 180.29,154.51 180.28,155.66 180.28,156.82 180.28,157.97 
				180.27,159.13 			"/>
			<polygon class="st2" points="180.27,160.29 180.26,160.29 180.26,159.13 180.26,157.97 180.25,156.82 180.25,155.66 
				180.24,154.51 180.24,153.35 180.22,152.19 180.2,151.04 180.18,149.88 180.14,148.73 180.1,147.57 180.06,146.41 180.01,145.26 
				179.97,144.1 179.92,142.95 179.87,141.79 179.82,140.63 179.76,139.48 179.65,138.32 179.5,137.17 179.3,136.01 179.06,134.85 
				178.79,133.7 178.49,132.54 178.16,131.39 177.82,130.23 177.48,129.07 177.1,127.92 176.68,126.76 176.22,125.61 175.74,124.45 
				175.22,123.29 174.63,122.14 173.98,120.98 173.33,119.83 172.75,118.67 172.21,117.51 171.63,116.36 170.92,115.2 
				170.06,114.05 169.11,112.89 168.11,111.73 167.11,110.58 166.08,109.42 165.03,108.27 163.94,107.11 162.83,105.95 
				161.69,104.8 160.56,103.64 159.49,102.49 158.54,101.33 157.7,100.17 156.99,99.02 156.44,97.86 156.13,96.7 156.1,95.55 
				156.34,94.39 156.73,93.24 157.13,92.08 157.47,90.92 157.79,89.77 158.17,88.61 158.67,87.46 159.29,86.3 160,85.14 
				160.81,83.99 161.73,82.83 162.78,81.68 163.94,80.52 165.19,79.36 166.45,78.21 167.64,77.05 168.7,75.9 169.69,74.74 
				170.74,73.58 171.92,72.43 173.18,71.27 174.37,70.12 175.37,68.96 176.15,67.8 176.75,66.65 177.26,65.49 177.76,64.34 
				178.27,63.18 178.73,62.02 179.13,60.87 179.43,59.71 179.64,58.56 179.78,57.4 179.89,56.24 179.97,55.09 180.04,53.93 
				180.09,52.78 180.14,51.62 180.18,50.46 180.21,49.31 180.24,48.15 180.25,47 180.26,45.84 180.27,45.84 180.28,47 180.29,48.15 
				180.32,49.31 180.35,50.46 180.39,51.62 180.44,52.78 180.5,53.93 180.56,55.09 180.65,56.24 180.75,57.4 180.9,58.56 
				181.11,59.71 181.4,60.87 181.8,62.02 182.27,63.18 182.77,64.34 183.27,65.49 183.78,66.65 184.38,67.8 185.16,68.96 
				186.16,70.12 187.35,71.27 188.61,72.43 189.79,73.58 190.84,74.74 191.83,75.9 192.9,77.05 194.08,78.21 195.34,79.36 
				196.59,80.52 197.75,81.68 198.8,82.83 199.73,83.99 200.54,85.14 201.25,86.3 201.86,87.46 202.36,88.61 202.74,89.77 
				203.06,90.92 203.4,92.08 203.8,93.24 204.19,94.39 204.43,95.55 204.4,96.7 204.09,97.86 203.54,99.02 202.83,100.17 
				202,101.33 201.04,102.49 199.98,103.64 198.85,104.8 197.71,105.95 196.59,107.11 195.5,108.27 194.45,109.42 193.43,110.58 
				192.42,111.73 191.42,112.89 190.47,114.05 189.61,115.2 188.9,116.36 188.32,117.51 187.79,118.67 187.2,119.83 186.55,120.98 
				185.9,122.14 185.31,123.29 184.79,124.45 184.31,125.61 183.85,126.76 183.43,127.92 183.06,129.07 182.71,130.23 
				182.37,131.39 182.05,132.54 181.74,133.7 181.47,134.85 181.23,136.01 181.03,137.17 180.88,138.32 180.77,139.48 
				180.71,140.63 180.66,141.79 180.61,142.95 180.57,144.1 180.52,145.26 180.47,146.41 180.43,147.57 180.39,148.73 
				180.36,149.88 180.33,151.04 180.31,152.19 180.3,153.35 180.29,154.51 180.28,155.66 180.28,156.82 180.28,157.97 
				180.27,159.13 			"/>
		</g>
		<line class="st0" x1="59.44" y1="166.37" x2="59.44" y2="168.15"/>
		<line class="st5" x1="59.44" y1="166.37" x2="59.44" y2="168.15"/>
		<line class="st0" x1="119.85" y1="166.37" x2="119.85" y2="168.15"/>
		<line class="st5" x1="119.85" y1="166.37" x2="119.85" y2="168.15"/>
		<line class="st0" x1="180.27" y1="166.37" x2="180.27" y2="168.15"/>
		<line class="st5" x1="180.27" y1="166.37" x2="180.27" y2="168.15"/>
		<line class="st0" x1="29.23" y1="138.31" x2="27.46" y2="138.31"/>
		<line class="st5" x1="29.23" y1="138.31" x2="27.46" y2="138.31"/>
		<path class="st0" d="M23.43,139.82h1.75v0.42h-2.35v-0.42c0.19-0.19,0.45-0.46,0.78-0.79c0.32-0.33,0.53-0.54,0.62-0.64
			c0.16-0.18,0.27-0.33,0.33-0.46c0.06-0.12,0.1-0.25,0.1-0.37c0-0.19-0.07-0.36-0.21-0.48c-0.14-0.12-0.31-0.19-0.54-0.19
			c-0.16,0-0.32,0.03-0.5,0.08c-0.17,0.06-0.36,0.14-0.56,0.25v-0.51c0.2-0.08,0.39-0.14,0.56-0.18c0.17-0.04,0.33-0.06,0.48-0.06
			c0.38,0,0.69,0.1,0.91,0.29c0.23,0.19,0.35,0.45,0.35,0.77c0,0.15-0.03,0.3-0.09,0.43c-0.06,0.14-0.16,0.3-0.31,0.48
			c-0.04,0.05-0.17,0.19-0.4,0.42S23.83,139.41,23.43,139.82"/>
		<g class="st0">
			<defs>
				<rect id="SVGID_3_" x="13.02" y="133.98" width="14.29" height="8.61"/>
			</defs>
			<clipPath id="SVGID_4_">
				<use xlink:href="#SVGID_3_"  style="overflow:visible;"/>
			</clipPath>
			<polyline class="st6" points="18.74,138.44 21.92,138.44 21.92,138.86 18.74,138.86 18.74,138.44 			"/>
		</g>
		<line class="st0" x1="29.23" y1="108.76" x2="27.46" y2="108.76"/>
		<line class="st5" x1="29.23" y1="108.76" x2="27.46" y2="108.76"/>
		<polyline class="st0" points="23.08,110.26 23.9,110.26 23.9,107.44 23.01,107.62 23.01,107.16 23.9,106.98 24.4,106.98 
			24.4,110.26 25.22,110.26 25.22,110.68 23.08,110.68 23.08,110.26 		"/>
		<g class="st0">
			<defs>
				<rect id="SVGID_5_" x="13.02" y="104.43" width="14.29" height="8.61"/>
			</defs>
			<clipPath id="SVGID_6_">
				<use xlink:href="#SVGID_5_"  style="overflow:visible;"/>
			</clipPath>
			<polyline class="st7" points="18.74,108.88 21.92,108.88 21.92,109.3 18.74,109.3 18.74,108.88 			"/>
		</g>
		<line class="st0" x1="29.23" y1="79.2" x2="27.46" y2="79.2"/>
		<line class="st5" x1="29.23" y1="79.2" x2="27.46" y2="79.2"/>
		<path class="st0" d="M24.07,77.36c0.41,0,0.73,0.17,0.95,0.49c0.22,0.33,0.33,0.81,0.33,1.43c0,0.62-0.11,1.1-0.33,1.43
			c-0.22,0.32-0.54,0.49-0.95,0.49c-0.42,0-0.74-0.16-0.95-0.49c-0.22-0.32-0.32-0.8-0.32-1.43c0-0.62,0.11-1.1,0.32-1.43
			C23.33,77.53,23.65,77.36,24.07,77.36 M24.07,77.76c-0.26,0-0.45,0.13-0.58,0.38c-0.13,0.25-0.19,0.63-0.19,1.14
			c0,0.51,0.06,0.89,0.19,1.14c0.13,0.25,0.32,0.38,0.58,0.38c0.26,0,0.45-0.13,0.58-0.38c0.13-0.25,0.19-0.63,0.19-1.14
			c0-0.51-0.07-0.89-0.19-1.14C24.52,77.89,24.33,77.76,24.07,77.76"/>
		<line class="st0" x1="29.23" y1="49.65" x2="27.46" y2="49.65"/>
		<line class="st5" x1="29.23" y1="49.65" x2="27.46" y2="49.65"/>
		<polyline class="st0" points="23.08,51.15 23.9,51.15 23.9,48.33 23.01,48.51 23.01,48.05 23.89,47.87 24.4,47.87 24.4,51.15 
			25.21,51.15 25.21,51.57 23.08,51.57 23.08,51.15 		"/>
		<g class="st0">
			<line class="st8" x1="59.44" y1="135.56" x2="59.44" y2="50.04"/>
		</g>
		<g class="st0">
			<line class="st9" x1="59.44" y1="103.49" x2="59.44" y2="82.06"/>
		</g>
		<g class="st0">
			<line class="st8" x1="119.85" y1="135.71" x2="119.85" y2="51.04"/>
		</g>
		<g class="st0">
			<line class="st9" x1="119.85" y1="103.77" x2="119.85" y2="82.45"/>
		</g>
		<g class="st0">
			<line class="st8" x1="180.27" y1="135.66" x2="180.27" y2="54.88"/>
		</g>
		<g class="st0">
			<line class="st9" x1="180.27" y1="105.33" x2="180.27" y2="84.93"/>
		</g>
		<line class="st10" x1="29.23" y1="166.37" x2="29.23" y2="32.45"/>
		<path class="st10" d="M210.47,32.45"/>
		<path class="st10" d="M210.47,166.37"/>
		<line class="st10" x1="29.23" y1="166.37" x2="210.47" y2="166.37"/>
		<g class="st0">
			<path class="st11" d="M59.44,93.54c0.2,0,0.4-0.08,0.54-0.22c0.14-0.14,0.22-0.34,0.22-0.54c0-0.2-0.08-0.4-0.22-0.54
				c-0.14-0.14-0.34-0.22-0.54-0.22s-0.4,0.08-0.54,0.22c-0.14,0.14-0.22,0.34-0.22,0.54c0,0.2,0.08,0.4,0.22,0.54
				C59.04,93.46,59.24,93.54,59.44,93.54z"/>
			<path class="st12" d="M59.44,93.54c0.2,0,0.4-0.08,0.54-0.22c0.14-0.14,0.22-0.34,0.22-0.54c0-0.2-0.08-0.4-0.22-0.54
				c-0.14-0.14-0.34-0.22-0.54-0.22s-0.4,0.08-0.54,0.22c-0.14,0.14-0.22,0.34-0.22,0.54c0,0.2,0.08,0.4,0.22,0.54
				C59.04,93.46,59.24,93.54,59.44,93.54z"/>
		</g>
		<g class="st0">
			<path class="st11" d="M119.85,93.71c0.2,0,0.4-0.08,0.54-0.22c0.14-0.14,0.22-0.34,0.22-0.54c0-0.2-0.08-0.4-0.22-0.54
				c-0.14-0.14-0.34-0.22-0.54-0.22s-0.4,0.08-0.54,0.22c-0.14,0.14-0.22,0.34-0.22,0.54c0,0.2,0.08,0.4,0.22,0.54
				C119.46,93.63,119.65,93.71,119.85,93.71z"/>
			<path class="st12" d="M119.85,93.71c0.2,0,0.4-0.08,0.54-0.22c0.14-0.14,0.22-0.34,0.22-0.54c0-0.2-0.08-0.4-0.22-0.54
				c-0.14-0.14-0.34-0.22-0.54-0.22s-0.4,0.08-0.54,0.22c-0.14,0.14-0.22,0.34-0.22,0.54c0,0.2,0.08,0.4,0.22,0.54
				C119.46,93.63,119.65,93.71,119.85,93.71z"/>
		</g>
		<g class="st0">
			<path class="st11" d="M180.27,95.91c0.2,0,0.4-0.08,0.54-0.22c0.14-0.14,0.22-0.34,0.22-0.54s-0.08-0.4-0.22-0.54
				c-0.14-0.14-0.34-0.22-0.54-0.22c-0.2,0-0.4,0.08-0.54,0.22c-0.14,0.14-0.22,0.34-0.22,0.54s0.08,0.4,0.22,0.54
				C179.87,95.83,180.06,95.91,180.27,95.91z"/>
			<path class="st12" d="M180.27,95.91c0.2,0,0.4-0.08,0.54-0.22c0.14-0.14,0.22-0.34,0.22-0.54s-0.08-0.4-0.22-0.54
				c-0.14-0.14-0.34-0.22-0.54-0.22c-0.2,0-0.4,0.08-0.54,0.22c-0.14,0.14-0.22,0.34-0.22,0.54s0.08,0.4,0.22,0.54
				C179.87,95.83,180.06,95.91,180.27,95.91z"/>
		</g>
	</g>
	<text transform="matrix(1 0 0 1 55.1372 175.0298)" class="st13 st14">AR</text>
	<rect x="106.37" y="169.3" class="st12" width="36.82" height="10.59"/>
	<text transform="matrix(1 0 0 1 106.3667 175.0938)" class="st13 st14">Model A</text>
	<rect x="165.98" y="169.3" class="st12" width="36.82" height="10.59"/>
	<text transform="matrix(1 0 0 1 165.9834 175.0938)" class="st13 st14">Model B</text>
	<rect x="86.64" y="6.58" class="st12" width="101.94" height="7.29"/>
	<text transform="matrix(1 0 0 1 86.6391 13.6799)" class="st13 st15">experimental data</text>
	<polyline class="st16" points="59.48,34.19 59.48,30.02 116.93,30.02 116.93,34.19 	"/>
	<polyline class="st16" points="121.49,34.19 121.49,30.02 178.94,30.02 178.94,34.19 	"/>
	<rect x="85.01" y="21.17" class="st12" width="38.21" height="13.2"/>
	<text transform="matrix(1 0 0 1 85.0063 26.9619)" class="st13 st14">n.s.</text>
	<rect x="147.85" y="21.17" class="st12" width="38.21" height="13.2"/>
	<text transform="matrix(1 0 0 1 147.8544 26.9619)" class="st13 st14">*</text>
</g>
<g>
	<g>
		<defs>
			<rect id="SVGID_7_" x="218.14" y="10.23" width="234.1" height="174.11"/>
		</defs>
		<clipPath id="SVGID_8_">
			<use xlink:href="#SVGID_7_"  style="overflow:visible;"/>
		</clipPath>
		<g class="st17">
			<defs>
				<rect id="SVGID_9_" x="218.14" y="10.23" width="234.1" height="174.11"/>
			</defs>
			<clipPath id="SVGID_10_">
				<use xlink:href="#SVGID_9_"  style="overflow:visible;"/>
			</clipPath>
			<g class="st18">
				<polygon class="st1" points="277.65,144.45 277.64,144.45 277.63,143.38 277.63,142.3 277.62,141.23 277.62,140.15 
					277.62,139.07 277.63,138 277.64,136.92 277.63,135.85 277.63,134.77 277.62,133.7 277.61,132.62 277.61,131.55 277.62,130.47 
					277.62,129.4 277.62,128.32 277.62,127.25 277.61,126.17 277.61,125.09 277.61,124.02 277.6,122.94 277.56,121.87 
					277.51,120.79 277.45,119.72 277.39,118.64 277.34,117.57 277.29,116.49 277.22,115.42 277.13,114.34 276.98,113.27 
					276.77,112.19 276.51,111.11 276.21,110.04 275.89,108.96 275.52,107.89 275.07,106.81 274.54,105.74 274.01,104.66 
					273.56,103.59 273.22,102.51 272.87,101.44 272.41,100.36 271.78,99.29 271.03,98.21 270.19,97.13 269.22,96.06 268.11,94.98 
					266.86,93.91 265.55,92.83 264.32,91.76 263.27,90.68 262.46,89.61 261.8,88.53 261.17,87.46 260.49,86.38 259.73,85.31 
					258.88,84.23 257.98,83.15 257.12,82.08 256.46,81 256.08,79.93 255.95,78.85 255.95,77.78 256,76.7 256.09,75.63 256.33,74.55 
					256.84,73.48 257.59,72.4 258.41,71.33 259.26,70.25 260.25,69.17 261.45,68.1 262.73,67.02 263.94,65.95 265.06,64.87 
					266.2,63.8 267.43,62.72 268.72,61.65 269.94,60.57 270.97,59.5 271.87,58.42 272.71,57.35 273.5,56.27 274.19,55.2 
					274.79,54.12 275.32,53.04 275.8,51.97 276.22,50.89 276.55,49.82 276.82,48.74 277.02,47.67 277.17,46.59 277.28,45.52 
					277.37,44.44 277.46,43.37 277.53,42.29 277.58,41.22 277.61,40.14 277.63,39.06 277.64,37.99 277.65,37.99 277.66,39.06 
					277.67,40.14 277.71,41.22 277.76,42.29 277.83,43.37 277.91,44.44 278.01,45.52 278.12,46.59 278.27,47.67 278.47,48.74 
					278.73,49.82 279.07,50.89 279.49,51.97 279.97,53.04 280.5,54.12 281.1,55.2 281.79,56.27 282.58,57.35 283.42,58.42 
					284.32,59.5 285.35,60.57 286.57,61.65 287.86,62.72 289.09,63.8 290.23,64.87 291.35,65.95 292.56,67.02 293.84,68.1 
					295.04,69.17 296.03,70.25 296.88,71.33 297.7,72.4 298.45,73.48 298.96,74.55 299.2,75.63 299.29,76.7 299.34,77.78 
					299.34,78.85 299.2,79.93 298.83,81 298.17,82.08 297.31,83.15 296.41,84.23 295.56,85.31 294.8,86.38 294.12,87.46 
					293.49,88.53 292.83,89.61 292.02,90.68 290.97,91.76 289.74,92.83 288.43,93.91 287.18,94.98 286.07,96.06 285.1,97.13 
					284.26,98.21 283.51,99.29 282.88,100.36 282.42,101.44 282.07,102.51 281.73,103.59 281.28,104.66 280.75,105.74 
					280.22,106.81 279.77,107.89 279.4,108.96 279.08,110.04 278.78,111.11 278.52,112.19 278.31,113.27 278.16,114.34 
					278.06,115.42 278,116.49 277.94,117.57 277.89,118.64 277.84,119.72 277.78,120.79 277.73,121.87 277.69,122.94 277.68,124.02 
					277.68,125.09 277.68,126.17 277.67,127.25 277.67,128.32 277.67,129.4 277.67,130.47 277.67,131.55 277.68,132.62 
					277.67,133.7 277.66,134.77 277.65,135.85 277.65,136.92 277.66,138 277.67,139.07 277.67,140.15 277.67,141.23 277.66,142.3 
					277.65,143.38 				"/>
				<polygon class="st2" points="277.65,144.45 277.64,144.45 277.63,143.38 277.63,142.3 277.62,141.23 277.62,140.15 
					277.62,139.07 277.63,138 277.64,136.92 277.63,135.85 277.63,134.77 277.62,133.7 277.61,132.62 277.61,131.55 277.62,130.47 
					277.62,129.4 277.62,128.32 277.62,127.25 277.61,126.17 277.61,125.09 277.61,124.02 277.6,122.94 277.56,121.87 
					277.51,120.79 277.45,119.72 277.39,118.64 277.34,117.57 277.29,116.49 277.22,115.42 277.13,114.34 276.98,113.27 
					276.77,112.19 276.51,111.11 276.21,110.04 275.89,108.96 275.52,107.89 275.07,106.81 274.54,105.74 274.01,104.66 
					273.56,103.59 273.22,102.51 272.87,101.44 272.41,100.36 271.78,99.29 271.03,98.21 270.19,97.13 269.22,96.06 268.11,94.98 
					266.86,93.91 265.55,92.83 264.32,91.76 263.27,90.68 262.46,89.61 261.8,88.53 261.17,87.46 260.49,86.38 259.73,85.31 
					258.88,84.23 257.98,83.15 257.12,82.08 256.46,81 256.08,79.93 255.95,78.85 255.95,77.78 256,76.7 256.09,75.63 256.33,74.55 
					256.84,73.48 257.59,72.4 258.41,71.33 259.26,70.25 260.25,69.17 261.45,68.1 262.73,67.02 263.94,65.95 265.06,64.87 
					266.2,63.8 267.43,62.72 268.72,61.65 269.94,60.57 270.97,59.5 271.87,58.42 272.71,57.35 273.5,56.27 274.19,55.2 
					274.79,54.12 275.32,53.04 275.8,51.97 276.22,50.89 276.55,49.82 276.82,48.74 277.02,47.67 277.17,46.59 277.28,45.52 
					277.37,44.44 277.46,43.37 277.53,42.29 277.58,41.22 277.61,40.14 277.63,39.06 277.64,37.99 277.65,37.99 277.66,39.06 
					277.67,40.14 277.71,41.22 277.76,42.29 277.83,43.37 277.91,44.44 278.01,45.52 278.12,46.59 278.27,47.67 278.47,48.74 
					278.73,49.82 279.07,50.89 279.49,51.97 279.97,53.04 280.5,54.12 281.1,55.2 281.79,56.27 282.58,57.35 283.42,58.42 
					284.32,59.5 285.35,60.57 286.57,61.65 287.86,62.72 289.09,63.8 290.23,64.87 291.35,65.95 292.56,67.02 293.84,68.1 
					295.04,69.17 296.03,70.25 296.88,71.33 297.7,72.4 298.45,73.48 298.96,74.55 299.2,75.63 299.29,76.7 299.34,77.78 
					299.34,78.85 299.2,79.93 298.83,81 298.17,82.08 297.31,83.15 296.41,84.23 295.56,85.31 294.8,86.38 294.12,87.46 
					293.49,88.53 292.83,89.61 292.02,90.68 290.97,91.76 289.74,92.83 288.43,93.91 287.18,94.98 286.07,96.06 285.1,97.13 
					284.26,98.21 283.51,99.29 282.88,100.36 282.42,101.44 282.07,102.51 281.73,103.59 281.28,104.66 280.75,105.74 
					280.22,106.81 279.77,107.89 279.4,108.96 279.08,110.04 278.78,111.11 278.52,112.19 278.31,113.27 278.16,114.34 
					278.06,115.42 278,116.49 277.94,117.57 277.89,118.64 277.84,119.72 277.78,120.79 277.73,121.87 277.69,122.94 277.68,124.02 
					277.68,125.09 277.68,126.17 277.67,127.25 277.67,128.32 277.67,129.4 277.67,130.47 277.67,131.55 277.68,132.62 
					277.67,133.7 277.66,134.77 277.65,135.85 277.65,136.92 277.66,138 277.67,139.07 277.67,140.15 277.67,141.23 277.66,142.3 
					277.65,143.38 				"/>
			</g>
			<g class="st18">
				<polygon class="st3" points="338.13,134.27 338.11,134.27 338.1,133.29 338.08,132.31 338.05,131.33 338.02,130.35 
					338.01,129.37 338,128.39 338,127.41 338,126.43 337.98,125.45 337.96,124.47 337.91,123.49 337.85,122.51 337.78,121.53 
					337.71,120.55 337.63,119.57 337.55,118.59 337.47,117.61 337.37,116.63 337.25,115.65 337.09,114.67 336.86,113.69 
					336.58,112.71 336.24,111.73 335.85,110.74 335.41,109.76 334.91,108.78 334.34,107.8 333.68,106.82 332.96,105.84 
					332.19,104.86 331.38,103.88 330.58,102.9 329.8,101.92 329.05,100.94 328.26,99.96 327.4,98.98 326.47,98 325.49,97.02 
					324.46,96.04 323.32,95.06 322.06,94.08 320.75,93.1 319.53,92.12 318.56,91.14 317.85,90.16 317.29,89.18 316.71,88.2 
					316.06,87.21 315.44,86.23 315,85.25 314.83,84.27 314.96,83.29 315.34,82.31 315.92,81.33 316.66,80.35 317.5,79.37 
					318.38,78.39 319.22,77.41 320.04,76.43 320.91,75.45 321.87,74.47 322.87,73.49 323.87,72.51 324.86,71.53 325.84,70.55 
					326.83,69.57 327.78,68.59 328.67,67.61 329.52,66.63 330.42,65.65 331.41,64.67 332.39,63.68 333.28,62.7 334.01,61.72 
					334.62,60.74 335.16,59.76 335.66,58.78 336.13,57.8 336.55,56.82 336.91,55.84 337.19,54.86 337.4,53.88 337.56,52.9 
					337.67,51.92 337.77,50.94 337.85,49.96 337.92,48.98 337.97,48 338,47.02 338.02,46.04 338.03,45.06 338.04,44.08 338.05,43.1 
					338.06,42.12 338.07,41.14 338.09,40.15 338.1,39.17 338.11,38.19 338.12,37.21 338.12,37.21 338.13,38.19 338.14,39.17 
					338.15,40.15 338.17,41.14 338.18,42.12 338.19,43.1 338.2,44.08 338.21,45.06 338.22,46.04 338.23,47.02 338.27,48 
					338.32,48.98 338.38,49.96 338.47,50.94 338.57,51.92 338.68,52.9 338.84,53.88 339.05,54.86 339.33,55.84 339.69,56.82 
					340.11,57.8 340.58,58.78 341.08,59.76 341.62,60.74 342.23,61.72 342.96,62.7 343.84,63.68 344.83,64.67 345.82,65.65 
					346.72,66.63 347.57,67.61 348.46,68.59 349.41,69.57 350.4,70.55 351.38,71.53 352.37,72.51 353.37,73.49 354.37,74.47 
					355.33,75.45 356.2,76.43 357.02,77.41 357.86,78.39 358.74,79.37 359.58,80.35 360.32,81.33 360.9,82.31 361.28,83.29 
					361.41,84.27 361.24,85.25 360.8,86.23 360.18,87.21 359.53,88.2 358.95,89.18 358.39,90.16 357.68,91.14 356.71,92.12 
					355.49,93.1 354.18,94.08 352.92,95.06 351.78,96.04 350.74,97.02 349.77,98 348.84,98.98 347.98,99.96 347.19,100.94 
					346.44,101.92 345.66,102.9 344.86,103.88 344.05,104.86 343.28,105.84 342.56,106.82 341.9,107.8 341.33,108.78 340.83,109.76 
					340.39,110.74 340,111.73 339.66,112.71 339.38,113.69 339.15,114.67 338.99,115.65 338.87,116.63 338.77,117.61 338.69,118.59 
					338.61,119.57 338.53,120.55 338.46,121.53 338.39,122.51 338.33,123.49 338.28,124.47 338.26,125.45 338.24,126.43 
					338.24,127.41 338.24,128.39 338.23,129.37 338.22,130.35 338.19,131.33 338.16,132.31 338.14,133.29 				"/>
				<polygon class="st2" points="338.13,134.27 338.11,134.27 338.1,133.29 338.08,132.31 338.05,131.33 338.02,130.35 
					338.01,129.37 338,128.39 338,127.41 338,126.43 337.98,125.45 337.96,124.47 337.91,123.49 337.85,122.51 337.78,121.53 
					337.71,120.55 337.63,119.57 337.55,118.59 337.47,117.61 337.37,116.63 337.25,115.65 337.09,114.67 336.86,113.69 
					336.58,112.71 336.24,111.73 335.85,110.74 335.41,109.76 334.91,108.78 334.34,107.8 333.68,106.82 332.96,105.84 
					332.19,104.86 331.38,103.88 330.58,102.9 329.8,101.92 329.05,100.94 328.26,99.96 327.4,98.98 326.47,98 325.49,97.02 
					324.46,96.04 323.32,95.06 322.06,94.08 320.75,93.1 319.53,92.12 318.56,91.14 317.85,90.16 317.29,89.18 316.71,88.2 
					316.06,87.21 315.44,86.23 315,85.25 314.83,84.27 314.96,83.29 315.34,82.31 315.92,81.33 316.66,80.35 317.5,79.37 
					318.38,78.39 319.22,77.41 320.04,76.43 320.91,75.45 321.87,74.47 322.87,73.49 323.87,72.51 324.86,71.53 325.84,70.55 
					326.83,69.57 327.78,68.59 328.67,67.61 329.52,66.63 330.42,65.65 331.41,64.67 332.39,63.68 333.28,62.7 334.01,61.72 
					334.62,60.74 335.16,59.76 335.66,58.78 336.13,57.8 336.55,56.82 336.91,55.84 337.19,54.86 337.4,53.88 337.56,52.9 
					337.67,51.92 337.77,50.94 337.85,49.96 337.92,48.98 337.97,48 338,47.02 338.02,46.04 338.03,45.06 338.04,44.08 338.05,43.1 
					338.06,42.12 338.07,41.14 338.09,40.15 338.1,39.17 338.11,38.19 338.12,37.21 338.12,37.21 338.13,38.19 338.14,39.17 
					338.15,40.15 338.17,41.14 338.18,42.12 338.19,43.1 338.2,44.08 338.21,45.06 338.22,46.04 338.23,47.02 338.27,48 
					338.32,48.98 338.38,49.96 338.47,50.94 338.57,51.92 338.68,52.9 338.84,53.88 339.05,54.86 339.33,55.84 339.69,56.82 
					340.11,57.8 340.58,58.78 341.08,59.76 341.62,60.74 342.23,61.72 342.96,62.7 343.84,63.68 344.83,64.67 345.82,65.65 
					346.72,66.63 347.57,67.61 348.46,68.59 349.41,69.57 350.4,70.55 351.38,71.53 352.37,72.51 353.37,73.49 354.37,74.47 
					355.33,75.45 356.2,76.43 357.02,77.41 357.86,78.39 358.74,79.37 359.58,80.35 360.32,81.33 360.9,82.31 361.28,83.29 
					361.41,84.27 361.24,85.25 360.8,86.23 360.18,87.21 359.53,88.2 358.95,89.18 358.39,90.16 357.68,91.14 356.71,92.12 
					355.49,93.1 354.18,94.08 352.92,95.06 351.78,96.04 350.74,97.02 349.77,98 348.84,98.98 347.98,99.96 347.19,100.94 
					346.44,101.92 345.66,102.9 344.86,103.88 344.05,104.86 343.28,105.84 342.56,106.82 341.9,107.8 341.33,108.78 340.83,109.76 
					340.39,110.74 340,111.73 339.66,112.71 339.38,113.69 339.15,114.67 338.99,115.65 338.87,116.63 338.77,117.61 338.69,118.59 
					338.61,119.57 338.53,120.55 338.46,121.53 338.39,122.51 338.33,123.49 338.28,124.47 338.26,125.45 338.24,126.43 
					338.24,127.41 338.24,128.39 338.23,129.37 338.22,130.35 338.19,131.33 338.16,132.31 338.14,133.29 				"/>
			</g>
			<g class="st18">
				<polygon class="st4" points="398.6,159.09 398.59,159.09 398.59,157.93 398.58,156.77 398.58,155.61 398.58,154.45 
					398.59,153.29 398.59,152.12 398.59,150.96 398.59,149.8 398.59,148.64 398.59,147.48 398.59,146.32 398.59,145.16 398.59,144 
					398.58,142.84 398.58,141.67 398.58,140.51 398.59,139.35 398.59,138.19 398.59,137.03 398.59,135.87 398.58,134.71 
					398.57,133.55 398.55,132.39 398.53,131.23 398.51,130.06 398.49,128.9 398.48,127.74 398.46,126.58 398.44,125.42 
					398.4,124.26 398.33,123.1 398.23,121.94 398.07,120.78 397.86,119.62 397.59,118.45 397.24,117.29 396.82,116.13 
					396.41,114.97 396.01,113.81 395.57,112.65 395.02,111.49 394.38,110.33 393.65,109.17 392.82,108 391.91,106.84 390.97,105.68 
					389.97,104.52 388.9,103.36 387.74,102.2 386.48,101.04 385.14,99.88 383.75,98.72 382.33,97.56 380.82,96.39 379.28,95.23 
					377.95,94.07 376.97,92.91 376.21,91.75 375.47,90.59 374.81,89.43 374.42,88.27 374.4,87.11 374.69,85.94 375.18,84.78 
					375.89,83.62 376.89,82.46 378.17,81.3 379.59,80.14 380.96,78.98 382.18,77.82 383.31,76.66 384.57,75.5 386.08,74.33 
					387.76,73.17 389.37,72.01 390.76,70.85 391.95,69.69 393.03,68.53 394.01,67.37 394.86,66.21 395.53,65.05 396.04,63.89 
					396.44,62.72 396.81,61.56 397.19,60.4 397.57,59.24 397.86,58.08 398.06,56.92 398.2,55.76 398.33,54.6 398.43,53.44 
					398.49,52.27 398.52,51.11 398.53,49.95 398.54,48.79 398.56,47.63 398.57,46.47 398.59,45.31 398.59,44.15 398.6,44.15 
					398.6,45.31 398.62,46.47 398.63,47.63 398.65,48.79 398.66,49.95 398.67,51.11 398.7,52.27 398.76,53.44 398.86,54.6 
					398.99,55.76 399.13,56.92 399.33,58.08 399.62,59.24 400,60.4 400.38,61.56 400.75,62.72 401.15,63.89 401.66,65.05 
					402.33,66.21 403.18,67.37 404.16,68.53 405.24,69.69 406.43,70.85 407.82,72.01 409.43,73.17 411.11,74.33 412.62,75.5 
					413.88,76.66 415.01,77.82 416.23,78.98 417.6,80.14 419.02,81.3 420.3,82.46 421.3,83.62 422.01,84.78 422.5,85.94 
					422.79,87.11 422.77,88.27 422.38,89.43 421.72,90.59 420.98,91.75 420.22,92.91 419.24,94.07 417.91,95.23 416.37,96.39 
					414.86,97.56 413.44,98.72 412.05,99.88 410.71,101.04 409.45,102.2 408.29,103.36 407.22,104.52 406.22,105.68 405.28,106.84 
					404.37,108 403.54,109.17 402.82,110.33 402.17,111.49 401.62,112.65 401.18,113.81 400.78,114.97 400.37,116.13 399.95,117.29 
					399.6,118.45 399.33,119.62 399.12,120.78 398.96,121.94 398.86,123.1 398.79,124.26 398.75,125.42 398.73,126.58 
					398.71,127.74 398.7,128.9 398.68,130.06 398.66,131.23 398.64,132.39 398.62,133.55 398.61,134.71 398.6,135.87 398.6,137.03 
					398.6,138.19 398.6,139.35 398.61,140.51 398.61,141.67 398.61,142.84 398.6,144 398.6,145.16 398.6,146.32 398.6,147.48 
					398.6,148.64 398.6,149.8 398.6,150.96 398.6,152.12 398.6,153.29 398.61,154.45 398.61,155.61 398.61,156.77 398.6,157.93 				
					"/>
				<polygon class="st2" points="398.6,159.09 398.59,159.09 398.59,157.93 398.58,156.77 398.58,155.61 398.58,154.45 
					398.59,153.29 398.59,152.12 398.59,150.96 398.59,149.8 398.59,148.64 398.59,147.48 398.59,146.32 398.59,145.16 398.59,144 
					398.58,142.84 398.58,141.67 398.58,140.51 398.59,139.35 398.59,138.19 398.59,137.03 398.59,135.87 398.58,134.71 
					398.57,133.55 398.55,132.39 398.53,131.23 398.51,130.06 398.49,128.9 398.48,127.74 398.46,126.58 398.44,125.42 
					398.4,124.26 398.33,123.1 398.23,121.94 398.07,120.78 397.86,119.62 397.59,118.45 397.24,117.29 396.82,116.13 
					396.41,114.97 396.01,113.81 395.57,112.65 395.02,111.49 394.38,110.33 393.65,109.17 392.82,108 391.91,106.84 390.97,105.68 
					389.97,104.52 388.9,103.36 387.74,102.2 386.48,101.04 385.14,99.88 383.75,98.72 382.33,97.56 380.82,96.39 379.28,95.23 
					377.95,94.07 376.97,92.91 376.21,91.75 375.47,90.59 374.81,89.43 374.42,88.27 374.4,87.11 374.69,85.94 375.18,84.78 
					375.89,83.62 376.89,82.46 378.17,81.3 379.59,80.14 380.96,78.98 382.18,77.82 383.31,76.66 384.57,75.5 386.08,74.33 
					387.76,73.17 389.37,72.01 390.76,70.85 391.95,69.69 393.03,68.53 394.01,67.37 394.86,66.21 395.53,65.05 396.04,63.89 
					396.44,62.72 396.81,61.56 397.19,60.4 397.57,59.24 397.86,58.08 398.06,56.92 398.2,55.76 398.33,54.6 398.43,53.44 
					398.49,52.27 398.52,51.11 398.53,49.95 398.54,48.79 398.56,47.63 398.57,46.47 398.59,45.31 398.59,44.15 398.6,44.15 
					398.6,45.31 398.62,46.47 398.63,47.63 398.65,48.79 398.66,49.95 398.67,51.11 398.7,52.27 398.76,53.44 398.86,54.6 
					398.99,55.76 399.13,56.92 399.33,58.08 399.62,59.24 400,60.4 400.38,61.56 400.75,62.72 401.15,63.89 401.66,65.05 
					402.33,66.21 403.18,67.37 404.16,68.53 405.24,69.69 406.43,70.85 407.82,72.01 409.43,73.17 411.11,74.33 412.62,75.5 
					413.88,76.66 415.01,77.82 416.23,78.98 417.6,80.14 419.02,81.3 420.3,82.46 421.3,83.62 422.01,84.78 422.5,85.94 
					422.79,87.11 422.77,88.27 422.38,89.43 421.72,90.59 420.98,91.75 420.22,92.91 419.24,94.07 417.91,95.23 416.37,96.39 
					414.86,97.56 413.44,98.72 412.05,99.88 410.71,101.04 409.45,102.2 408.29,103.36 407.22,104.52 406.22,105.68 405.28,106.84 
					404.37,108 403.54,109.17 402.82,110.33 402.17,111.49 401.62,112.65 401.18,113.81 400.78,114.97 400.37,116.13 399.95,117.29 
					399.6,118.45 399.33,119.62 399.12,120.78 398.96,121.94 398.86,123.1 398.79,124.26 398.75,125.42 398.73,126.58 
					398.71,127.74 398.7,128.9 398.68,130.06 398.66,131.23 398.64,132.39 398.62,133.55 398.61,134.71 398.6,135.87 398.6,137.03 
					398.6,138.19 398.6,139.35 398.61,140.51 398.61,141.67 398.61,142.84 398.6,144 398.6,145.16 398.6,146.32 398.6,147.48 
					398.6,148.64 398.6,149.8 398.6,150.96 398.6,152.12 398.6,153.29 398.61,154.45 398.61,155.61 398.61,156.77 398.6,157.93 				
					"/>
			</g>
			<line class="st18" x1="277.64" y1="165.18" x2="277.64" y2="166.96"/>
			<line class="st19" x1="277.64" y1="165.18" x2="277.64" y2="166.96"/>
			<line class="st18" x1="338.12" y1="165.18" x2="338.12" y2="166.96"/>
			<line class="st19" x1="338.12" y1="165.18" x2="338.12" y2="166.96"/>
			<line class="st18" x1="398.6" y1="165.18" x2="398.6" y2="166.96"/>
			<line class="st19" x1="398.6" y1="165.18" x2="398.6" y2="166.96"/>
			<line class="st18" x1="247.41" y1="162.93" x2="245.63" y2="162.93"/>
			<line class="st19" x1="247.41" y1="162.93" x2="245.63" y2="162.93"/>
			<path class="st18" d="M236.75,164.43h1.75v0.42h-2.35v-0.42c0.19-0.19,0.45-0.46,0.78-0.79c0.33-0.33,0.53-0.54,0.62-0.64
				c0.16-0.18,0.27-0.33,0.34-0.46c0.06-0.12,0.1-0.25,0.1-0.37c0-0.19-0.07-0.36-0.21-0.48c-0.14-0.12-0.31-0.19-0.54-0.19
				c-0.16,0-0.33,0.03-0.5,0.08c-0.17,0.06-0.36,0.14-0.56,0.25v-0.51c0.2-0.08,0.39-0.14,0.56-0.18c0.17-0.04,0.34-0.06,0.48-0.06
				c0.38,0,0.69,0.1,0.91,0.29c0.23,0.19,0.35,0.45,0.35,0.77c0,0.15-0.03,0.3-0.09,0.43c-0.06,0.14-0.16,0.3-0.31,0.48
				c-0.04,0.05-0.17,0.19-0.4,0.42C237.46,163.7,237.15,164.02,236.75,164.43"/>
			<polyline class="st18" points="239.55,164.23 240.07,164.23 240.07,164.86 239.55,164.86 239.55,164.23 			"/>
			<path class="st18" d="M242.23,161.09c0.41,0,0.73,0.17,0.95,0.49c0.22,0.33,0.33,0.81,0.33,1.43c0,0.62-0.11,1.1-0.33,1.43
				c-0.22,0.33-0.54,0.49-0.95,0.49c-0.42,0-0.74-0.16-0.96-0.49c-0.22-0.33-0.33-0.8-0.33-1.43c0-0.62,0.11-1.1,0.33-1.43
				C241.5,161.25,241.82,161.09,242.23,161.09 M242.23,161.48c-0.26,0-0.45,0.13-0.58,0.38c-0.13,0.25-0.19,0.64-0.19,1.14
				s0.06,0.89,0.19,1.14c0.13,0.25,0.33,0.38,0.58,0.38s0.45-0.13,0.58-0.38c0.13-0.25,0.19-0.64,0.19-1.14s-0.07-0.89-0.19-1.14
				C242.69,161.61,242.49,161.48,242.23,161.48"/>
			<g class="st18">
				<defs>
					<rect id="SVGID_11_" x="226.33" y="158.59" width="14.3" height="8.62"/>
				</defs>
				<clipPath id="SVGID_12_">
					<use xlink:href="#SVGID_11_"  style="overflow:visible;"/>
				</clipPath>
				<polyline class="st20" points="232.05,163.05 235.23,163.05 235.23,163.47 232.05,163.47 232.05,163.05 				"/>
			</g>
			<g class="st18">
				<defs>
					<rect id="SVGID_13_" x="226.33" y="142.42" width="14.3" height="8.62"/>
				</defs>
				<clipPath id="SVGID_14_">
					<use xlink:href="#SVGID_13_"  style="overflow:visible;"/>
				</clipPath>
			</g>
			<line class="st18" x1="247.41" y1="130.58" x2="245.63" y2="130.58"/>
			<line class="st19" x1="247.41" y1="130.58" x2="245.63" y2="130.58"/>
			<polyline class="st18" points="236.4,132.09 237.22,132.09 237.22,129.26 236.33,129.44 236.33,128.99 237.21,128.81 
				237.72,128.81 237.72,132.09 238.54,132.09 238.54,132.51 236.4,132.51 236.4,132.09 			"/>
			<polyline class="st18" points="239.55,131.88 240.07,131.88 240.07,132.51 239.55,132.51 239.55,131.88 			"/>
			<path class="st18" d="M242.23,128.74c0.41,0,0.73,0.17,0.95,0.49c0.22,0.33,0.33,0.81,0.33,1.43c0,0.62-0.11,1.1-0.33,1.43
				c-0.22,0.33-0.54,0.49-0.95,0.49c-0.42,0-0.74-0.16-0.96-0.49c-0.22-0.33-0.33-0.8-0.33-1.43c0-0.62,0.11-1.1,0.33-1.43
				C241.5,128.91,241.82,128.74,242.23,128.74 M242.23,129.14c-0.26,0-0.45,0.13-0.58,0.38c-0.13,0.25-0.19,0.64-0.19,1.14
				c0,0.51,0.06,0.89,0.19,1.14c0.13,0.25,0.33,0.38,0.58,0.38s0.45-0.13,0.58-0.38c0.13-0.25,0.19-0.64,0.19-1.14
				c0-0.51-0.07-0.89-0.19-1.14C242.69,129.26,242.49,129.14,242.23,129.14"/>
			<g class="st18">
				<defs>
					<rect id="SVGID_15_" x="226.33" y="126.25" width="14.3" height="8.62"/>
				</defs>
				<clipPath id="SVGID_16_">
					<use xlink:href="#SVGID_15_"  style="overflow:visible;"/>
				</clipPath>
				<polyline class="st21" points="232.05,130.71 235.23,130.71 235.23,131.13 232.05,131.13 232.05,130.71 				"/>
			</g>
			<g class="st18">
				<defs>
					<rect id="SVGID_17_" x="226.33" y="110.07" width="14.3" height="8.62"/>
				</defs>
				<clipPath id="SVGID_18_">
					<use xlink:href="#SVGID_17_"  style="overflow:visible;"/>
				</clipPath>
			</g>
			<line class="st18" x1="247.41" y1="98.24" x2="245.63" y2="98.24"/>
			<line class="st19" x1="247.41" y1="98.24" x2="245.63" y2="98.24"/>
			<path class="st18" d="M237.39,96.4c0.41,0,0.73,0.17,0.95,0.49c0.22,0.33,0.33,0.81,0.33,1.43c0,0.62-0.11,1.1-0.33,1.43
				c-0.22,0.33-0.54,0.49-0.95,0.49c-0.42,0-0.74-0.16-0.96-0.49c-0.22-0.33-0.33-0.8-0.33-1.43c0-0.62,0.11-1.1,0.33-1.43
				C236.65,96.56,236.97,96.4,237.39,96.4 M237.39,96.79c-0.26,0-0.45,0.13-0.58,0.38c-0.13,0.25-0.19,0.64-0.19,1.14
				c0,0.51,0.06,0.89,0.19,1.14c0.13,0.25,0.33,0.38,0.58,0.38s0.45-0.13,0.58-0.38c0.13-0.25,0.19-0.64,0.19-1.14
				c0-0.51-0.07-0.89-0.19-1.14C237.84,96.92,237.64,96.79,237.39,96.79"/>
			<polyline class="st18" points="239.54,99.54 240.07,99.54 240.07,100.17 239.54,100.17 239.54,99.54 			"/>
			<path class="st18" d="M242.23,96.4c0.41,0,0.73,0.17,0.95,0.49c0.22,0.33,0.33,0.81,0.33,1.43c0,0.62-0.11,1.1-0.33,1.43
				c-0.22,0.33-0.54,0.49-0.95,0.49c-0.42,0-0.74-0.16-0.96-0.49c-0.22-0.33-0.33-0.8-0.33-1.43c0-0.62,0.11-1.1,0.33-1.43
				C241.5,96.56,241.82,96.4,242.23,96.4 M242.23,96.79c-0.26,0-0.45,0.13-0.58,0.38c-0.13,0.25-0.19,0.64-0.19,1.14
				c0,0.51,0.06,0.89,0.19,1.14c0.13,0.25,0.33,0.38,0.58,0.38s0.45-0.13,0.58-0.38c0.13-0.25,0.19-0.64,0.19-1.14
				c0-0.51-0.07-0.89-0.19-1.14C242.68,96.92,242.49,96.79,242.23,96.79"/>
			<line class="st18" x1="247.41" y1="65.89" x2="245.63" y2="65.89"/>
			<line class="st19" x1="247.41" y1="65.89" x2="245.63" y2="65.89"/>
			<polyline class="st18" points="236.4,67.4 237.22,67.4 237.22,64.58 236.33,64.75 236.33,64.3 237.21,64.12 237.72,64.12 
				237.72,67.4 238.53,67.4 238.53,67.82 236.4,67.82 236.4,67.4 			"/>
			<polyline class="st18" points="239.54,67.19 240.07,67.19 240.07,67.82 239.54,67.82 239.54,67.19 			"/>
			<path class="st18" d="M242.23,64.05c0.41,0,0.73,0.17,0.95,0.49c0.22,0.33,0.33,0.81,0.33,1.43c0,0.62-0.11,1.1-0.33,1.43
				c-0.22,0.33-0.54,0.49-0.95,0.49c-0.42,0-0.74-0.16-0.96-0.49c-0.22-0.33-0.33-0.8-0.33-1.43c0-0.62,0.11-1.1,0.33-1.43
				C241.5,64.22,241.82,64.05,242.23,64.05 M242.23,64.45c-0.26,0-0.45,0.13-0.58,0.38c-0.13,0.25-0.19,0.64-0.19,1.14
				c0,0.51,0.06,0.89,0.19,1.14c0.13,0.25,0.33,0.38,0.58,0.38s0.45-0.13,0.58-0.38c0.13-0.25,0.19-0.64,0.19-1.14
				c0-0.51-0.07-0.89-0.19-1.14C242.68,64.58,242.49,64.45,242.23,64.45"/>
			<line class="st18" x1="247.41" y1="33.55" x2="245.63" y2="33.55"/>
			<line class="st19" x1="247.41" y1="33.55" x2="245.63" y2="33.55"/>
			<path class="st18" d="M236.75,35.05h1.75v0.42h-2.35v-0.42c0.19-0.19,0.45-0.46,0.78-0.79c0.33-0.33,0.53-0.54,0.62-0.64
				c0.16-0.18,0.27-0.33,0.34-0.46c0.06-0.12,0.1-0.25,0.1-0.37c0-0.19-0.07-0.36-0.21-0.48c-0.14-0.12-0.31-0.19-0.54-0.19
				c-0.16,0-0.33,0.03-0.5,0.08c-0.17,0.06-0.36,0.14-0.56,0.25v-0.51c0.2-0.08,0.39-0.14,0.56-0.18c0.17-0.04,0.34-0.06,0.48-0.06
				c0.38,0,0.69,0.1,0.91,0.29c0.23,0.19,0.35,0.45,0.35,0.77c0,0.15-0.03,0.3-0.09,0.43c-0.06,0.14-0.16,0.3-0.31,0.48
				c-0.04,0.05-0.17,0.19-0.4,0.42C237.46,34.32,237.15,34.64,236.75,35.05"/>
			<polyline class="st18" points="239.54,34.85 240.07,34.85 240.07,35.48 239.54,35.48 239.54,34.85 			"/>
			<path class="st18" d="M242.23,31.71c0.41,0,0.73,0.17,0.95,0.49c0.22,0.33,0.33,0.81,0.33,1.43c0,0.62-0.11,1.1-0.33,1.43
				c-0.22,0.33-0.54,0.49-0.95,0.49c-0.42,0-0.74-0.16-0.96-0.49c-0.22-0.33-0.33-0.8-0.33-1.43c0-0.62,0.11-1.1,0.33-1.43
				C241.5,31.87,241.82,31.71,242.23,31.71 M242.23,32.1c-0.26,0-0.45,0.13-0.58,0.38c-0.13,0.25-0.19,0.64-0.19,1.14
				c0,0.51,0.06,0.89,0.19,1.14c0.13,0.25,0.33,0.38,0.58,0.38s0.45-0.13,0.58-0.38c0.13-0.25,0.19-0.64,0.19-1.14
				c0-0.51-0.07-0.89-0.19-1.14C242.68,32.23,242.49,32.1,242.23,32.1"/>
			<g class="st18">
				<line class="st8" x1="277.64" y1="113.44" x2="277.64" y2="44.61"/>
			</g>
			<g class="st18">
				<line class="st9" x1="277.64" y1="87.65" x2="277.64" y2="70.4"/>
			</g>
			<g class="st18">
				<line class="st8" x1="338.12" y1="116.66" x2="338.12" y2="51.85"/>
			</g>
			<g class="st18">
				<line class="st9" x1="338.12" y1="92.38" x2="338.12" y2="76.15"/>
			</g>
			<g class="st18">
				<line class="st8" x1="398.6" y1="118.77" x2="398.6" y2="57.32"/>
			</g>
			<g class="st18">
				<line class="st9" x1="398.6" y1="95.73" x2="398.6" y2="80.37"/>
			</g>
			<line class="st22" x1="247.41" y1="165.18" x2="247.41" y2="31.12"/>
			<path class="st22" d="M428.83,31.12"/>
			<path class="st22" d="M428.83,165.18"/>
			<line class="st22" x1="247.41" y1="165.18" x2="428.83" y2="165.18"/>
			<g class="st18">
				<path class="st11" d="M277.64,79.46c0.2,0,0.4-0.08,0.54-0.22c0.14-0.14,0.22-0.34,0.22-0.54s-0.08-0.4-0.22-0.54
					c-0.14-0.14-0.34-0.22-0.54-0.22c-0.2,0-0.4,0.08-0.54,0.22c-0.14,0.14-0.22,0.34-0.22,0.54s0.08,0.4,0.22,0.54
					C277.25,79.38,277.44,79.46,277.64,79.46z"/>
				<path class="st12" d="M277.64,79.46c0.2,0,0.4-0.08,0.54-0.22c0.14-0.14,0.22-0.34,0.22-0.54s-0.08-0.4-0.22-0.54
					c-0.14-0.14-0.34-0.22-0.54-0.22c-0.2,0-0.4,0.08-0.54,0.22c-0.14,0.14-0.22,0.34-0.22,0.54s0.08,0.4,0.22,0.54
					C277.25,79.38,277.44,79.46,277.64,79.46z"/>
			</g>
			<g class="st18">
				<path class="st11" d="M338.12,85.1c0.2,0,0.4-0.08,0.54-0.22c0.14-0.14,0.22-0.34,0.22-0.54c0-0.2-0.08-0.4-0.22-0.54
					c-0.14-0.14-0.34-0.22-0.54-0.22s-0.4,0.08-0.54,0.22c-0.14,0.14-0.22,0.34-0.22,0.54c0,0.2,0.08,0.4,0.22,0.54
					C337.72,85.02,337.92,85.1,338.12,85.1z"/>
				<path class="st12" d="M338.12,85.1c0.2,0,0.4-0.08,0.54-0.22c0.14-0.14,0.22-0.34,0.22-0.54c0-0.2-0.08-0.4-0.22-0.54
					c-0.14-0.14-0.34-0.22-0.54-0.22s-0.4,0.08-0.54,0.22c-0.14,0.14-0.22,0.34-0.22,0.54c0,0.2,0.08,0.4,0.22,0.54
					C337.72,85.02,337.92,85.1,338.12,85.1z"/>
			</g>
			<g class="st18">
				<path class="st11" d="M398.6,88.71c0.2,0,0.4-0.08,0.54-0.22c0.14-0.14,0.22-0.34,0.22-0.54s-0.08-0.4-0.22-0.54
					c-0.14-0.14-0.34-0.22-0.54-0.22c-0.2,0-0.4,0.08-0.54,0.22c-0.14,0.14-0.22,0.34-0.22,0.54s0.08,0.4,0.22,0.54
					C398.2,88.63,398.39,88.71,398.6,88.71z"/>
				<path class="st12" d="M398.6,88.71c0.2,0,0.4-0.08,0.54-0.22c0.14-0.14,0.22-0.34,0.22-0.54s-0.08-0.4-0.22-0.54
					c-0.14-0.14-0.34-0.22-0.54-0.22c-0.2,0-0.4,0.08-0.54,0.22c-0.14,0.14-0.22,0.34-0.22,0.54s0.08,0.4,0.22,0.54
					C398.2,88.63,398.39,88.71,398.6,88.71z"/>
			</g>
		</g>
	</g>
</g>
<rect x="314.09" y="6.95" class="st12" width="126.3" height="12.6"/>
<text transform="matrix(1 0 0 1 314.0849 14.054)" class="st13 st15">model data</text>
<polyline class="st16" points="277.32,34.19 277.32,30.02 335.19,30.02 335.19,34.19 "/>
<polyline class="st16" points="340.64,34.19 340.64,30.02 397.83,30.02 397.83,34.02 "/>
<rect x="304.68" y="23.03" class="st12" width="38.21" height="13.2"/>
<text transform="matrix(1 0 0 1 304.6846 28.8277)" class="st13 st14">*</text>
<rect x="370.37" y="23.99" class="st12" width="38.21" height="13.2"/>
<text transform="matrix(1 0 0 1 370.3655 29.7852)" class="st13 st14">*</text>
<text transform="matrix(1 0 0 1 273.5554 175.0297)" class="st13 st14">AR</text>
<rect x="322.23" y="169.73" class="st12" width="36.82" height="10.59"/>
<text transform="matrix(1 0 0 1 322.2302 175.528)" class="st13 st14">Model A</text>
<rect x="384.15" y="169.73" class="st12" width="36.82" height="10.59"/>
<text transform="matrix(1 0 0 1 384.1459 175.528)" class="st13 st14">Model B</text>
<text transform="matrix(-2.540262e-07 -1 1 -2.540262e-07 13.7893 113.384)" class="st13 st15">log(RMSE)</text>
<rect x="14.17" y="9" class="st12" width="26.55" height="20.64"/>
<text transform="matrix(1 0 0 1 11.4466 25.6772)" class="st13 st23">A</text>
<text transform="matrix(1 0 0 1 222.9544 25.6772)" class="st13 st23">B</text>
</svg>
